<mxfile host="app.diagrams.net" modified="2024-04-12T17:20:52.158Z" agent="Mozilla/5.0 (Macintosh; Intel Mac OS X 10_15_7) AppleWebKit/537.36 (KHTML, like Gecko) Chrome/123.0.0.0 Safari/537.36" version="24.2.5" etag="o5L39M_SJdKyBeFWaMB7" type="github">
  <diagram name="Page-1" id="meWkELNwNO4zEExSQTsE">
    <mxGraphModel>
      <root>
        <mxCell id="0" />
        <mxCell id="1" parent="0" />
      </root>
    </mxGraphModel>
  </diagram>
</mxfile>
